
<svg xmlns="http://www.w3.org/2000/svg" data-name="Layer 1" width="543.21934" height="633.6012" viewBox="0 0 543.21934 633.6012" xmlns:xlink="http://www.w3.org/1999/xlink"><path d="M854.05236,366.72793H345.48229a17.11177,17.11177,0,0,1-17.092-17.092V150.29137a17.11177,17.11177,0,0,1,17.092-17.092H854.05236a17.11177,17.11177,0,0,1,17.092,17.092V349.636A17.11177,17.11177,0,0,1,854.05236,366.72793Z" transform="translate(-328.39033 -133.1994)" fill="#f2f2f2"/><path d="M735.44243,355.827H426.21a87.01423,87.01423,0,0,1-86.916-86.916V231.02584a87.01476,87.01476,0,0,1,86.916-86.91662h347.1176a87.01476,87.01476,0,0,1,86.916,86.91662A124.94266,124.94266,0,0,1,735.44243,355.827Z" transform="translate(-328.39033 -133.1994)" fill="#fff"/><path d="M655.673,201.175H451.26661a4.408,4.408,0,1,1,0-8.81606H655.673a4.408,4.408,0,0,1,0,8.81606Z" transform="translate(-328.39033 -133.1994)" fill="#e6e6e6"/><path d="M759.14708,248.20578H451.26661a4.408,4.408,0,1,1,0-8.81606H759.14708a4.408,4.408,0,0,1,0,8.81606Z" transform="translate(-328.39033 -133.1994)" fill="#e6e6e6"/><path d="M759.14708,295.23659H451.26661a4.408,4.408,0,1,1,0-8.81606H759.14708a4.408,4.408,0,0,1,0,8.81606Z" transform="translate(-328.39033 -133.1994)" fill="#e6e6e6"/><path d="M759.14708,295.23659H451.26661a4.408,4.408,0,1,1,0-8.81606H759.14708a4.408,4.408,0,0,1,0,8.81606Z" transform="translate(-328.39033 -133.1994)" fill="#e6e6e6"/><path d="M634.10291,253.6037a9.08847,9.08847,0,0,0,11.00741,8.54713l16.81052,27.57777,7.15453-15.18214L652.015,250.6857a9.13775,9.13775,0,0,0-17.912,2.918Z" transform="translate(-328.39033 -133.1994)" fill="#ffb6b6"/><path d="M760.255,332.63993,702.3227,301.21629,684.04961,284.0724s-7.94382-2.1269-5.02-4.70983-5.40826-5.074-5.40826-5.074l-9.80947-9.20329L649.8729,274.948l4.0341,6.25338s-.27766,10.35216,5.39346,8.36056,4.25394,6.59416,4.25394,6.59416l33.84976,52.47148Z" transform="translate(-328.39033 -133.1994)" fill="#3f3d56"/><circle cx="260.85489" cy="113.24865" r="56.58599" fill="#007bff"/><polygon points="432.044 611.601 420.278 611.601 414.679 566.219 432.044 566.219 432.044 611.601" fill="#ffb6b6"/><path d="M766.64449,765.186h-8.43765l-1.50609-7.96615-3.8573,7.96614H730.46478a5.03052,5.03052,0,0,1-2.85851-9.17017l17.87094-12.34231V735.62l18.79712,1.12193Z" transform="translate(-328.39033 -133.1994)" fill="#2f2e41"/><polygon points="337.942 611.601 326.176 611.601 320.577 566.219 337.942 566.219 337.942 611.601" fill="#ffb6b6"/><path d="M672.54234,765.186h-8.43765l-1.50608-7.96615L658.7413,765.186H636.36263a5.03052,5.03052,0,0,1-2.85851-9.17017l17.871-12.34231V735.62l18.79711,1.12193Z" transform="translate(-328.39033 -133.1994)" fill="#2f2e41"/><rect x="360.17495" y="268.38114" width="59.38485" height="67.60737" fill="#ffb6b6"/><path d="M689.9357,434.92742l-10.04975,11.877L662.5273,483.34891,618.788,587.41832l-9.25023,22.00919,7.47021,38.90734s1.20911,27.41093,1.20911,31.89768c0,9.13613,7.64134,14.19843,7.64134,14.19843l5.606,29.19819,54.36-2.284s-1.89668-32.18465-13.28212-40.30307-16.6191-50.42877-16.6191-50.42877l-6.1865-18.77224,60.29846-71.47763.38919,24.98513.18838,12.09342s-8.83024,78.65618,1.463,93.921.20981,13.46892.20981,13.46892l.49048,31.48835,64.40973.45681L762.976,626.12129s-7.2153-5.6971-3.35489-11.42384-3.74157-12.74053-3.74157-12.74053l3.40954-70.77248s-3.7751-12.22439.66547-13.81333.583-12.10132.583-12.10132l.65994-13.69836-13.24739-42.483Z" transform="translate(-328.39033 -133.1994)" fill="#2f2e41"/><path d="M748.86374,401.58054l6.39529-19.18588,4.56807-6.39529,1.82722-18.27226c0-49.33511-11.00445-41.11978-11.00445-41.11978l-6.3542-17.35146-29.23561-.91361L696.331,316.15772l-15.53142,5.48167-6.082,31.60212,11.10688,33.72122,2.74084,18.27226c-5.22846,9.6521-4.78621,5.08671-.45681,12.33378l51.61914,14.161c18.27226,6.39529,18.27226-10.04974,14.60827-14.161C750.672,413.45751,748.86374,401.58054,748.86374,401.58054Z" transform="translate(-328.39033 -133.1994)" fill="#3f3d56"/><circle cx="397.51079" cy="131.90749" r="27.10245" fill="#ffb6b6"/><path d="M699.50588,307.8341" transform="translate(-328.39033 -133.1994)" fill="#2f2e41"/><path d="M762.08369,301.28407a3.32909,3.32909,0,0,1-1.8546,4.86957c-3.63616,1.206-5.87453,4.72337-8.48745,7.53731-2.60383,2.8048-6.79728,5.1345-10.12284,3.225-3.31642-1.90027-3.54483-6.75155-6.32219-9.38276-2.70432-2.55811-7.19928-2.24751-10.37869-.30151l-.09507.05848a3.35133,3.35133,0,0,1-5.12711-3.40958q1.671-8.88678,3.34014-17.77163a59.76117,59.76117,0,0,1-12.50736,18.9118,13.757,13.757,0,0,1-5.42687,3.8189c-1.90027.603-3.74579-1.36128-5.59131-1.005,4.58636-4.01077,20.00815-29.71986,17.249-46.90492q-4.865.5482-9.72994,1.09635A8.94324,8.94324,0,0,0,704.855,257.924a10.51041,10.51041,0,0,1-.55734,4.41271c-1.35213.15535-2.71341.30151-4.06554.4568-1.882.21017-3.92858.39285-5.54563-.59381-2.69517-1.64449-2.77742-5.53649-2.01-8.60628,2.2475-8.926,9.063-16.39022,17.40431-20.30045,8.3413-3.90115,10.80806,4.78732,19.597,2.01,17.35864-5.48168,30.66085,3.892,35.34769,21.28717C768.96323,271.18051,766.10361,286.66626,762.08369,301.28407Z" transform="translate(-328.39033 -133.1994)" fill="#2f2e41"/><path d="M837.11581,765.77552H803.92929l-.14258-.25879c-.42431-.76953-.834-1.585-1.2168-2.42285-3.41845-7.31836-4.86328-15.68848-6.13818-23.07325l-.96-5.5664a3.43689,3.43689,0,0,1,5.41016-3.36231q7.56517,5.5049,15.13623,10.999c1.91113,1.39062,4.09375,3,6.18408,4.73925.20166-.97949.4126-1.96191.62353-2.93066a3.43916,3.43916,0,0,1,6.28077-1.08594l3.88281,6.23828c2.832,4.55567,5.33154,9.04493,4.82226,13.88672a.756.756,0,0,1-.01318.17578,10.94679,10.94679,0,0,1-.56348,2.33106Z" transform="translate(-328.39033 -133.1994)" fill="#f0f0f0"/><path d="M870.42521,766.49329l-315.3575.30731a1.19069,1.19069,0,0,1,0-2.38135l315.3575-.30731a1.19069,1.19069,0,0,1,0,2.38135Z" transform="translate(-328.39033 -133.1994)" fill="#cacaca"/><path d="M584.10145,322.60868l-34.688-29.29381a5.86536,5.86536,0,0,1-.69609-8.25652l6.38441-7.56005a5.86537,5.86537,0,0,1,8.25653-.6961l34.688,29.29381a5.86536,5.86536,0,0,1,.6961,8.25652l-6.38442,7.56006A5.86537,5.86537,0,0,1,584.10145,322.60868Z" transform="translate(-328.39033 -133.1994)" fill="#3f3d56"/><path d="M551.2336,285.66783a3.161,3.161,0,0,0,.37511,4.44934l34.688,29.29381a3.16093,3.16093,0,0,0,4.44933-.37512l6.38442-7.56a3.161,3.161,0,0,0-.37512-4.44934l-34.688-29.29381a3.161,3.161,0,0,0-4.44934.37512Z" transform="translate(-328.39033 -133.1994)" fill="#fff"/><path d="M571.59773,297.05559a1.33329,1.33329,0,0,1-1.05444.55768l-5.45025.12517a1.33366,1.33366,0,1,1-.06117-2.66662l3.56552-.082-3.5114-9.26539a1.33372,1.33372,0,0,1,2.49431-.94531l4.17956,11.02823a1.33428,1.33428,0,0,1-.14089,1.21782Z" transform="translate(-328.39033 -133.1994)" fill="#007bff"/><path d="M572.29679,299.38408a9.08846,9.08846,0,0,1,7.29959,11.8715l25.5864,19.70946-15.87006,5.46132-21.86426-19.5537a9.13775,9.13775,0,0,1,4.84831-17.48852Z" transform="translate(-328.39033 -133.1994)" fill="#ffb6b6"/><path d="M705.50514,309.12932l-65.50929,40.27784s-26.4126-9.77273-21.25071-14.29686-11.2708-7.58266-11.2708-7.58266l-18.15322-12.213-10.534,12.24231s1.91937,19.88518,5.18517,16.442,8.14738,5.96269,8.14738,5.96269,1.44254,10.50246,10.73916,7.8595S637.101,382.88158,637.101,382.88158l80.62233-30.06905Z" transform="translate(-328.39033 -133.1994)" fill="#3f3d56"/><path d="M587.25535,269.147a4.89054,4.89054,0,0,1-3.91317-1.95719l-11.99792-15.99749a4.89185,4.89185,0,1,1,7.82715-5.87l7.84945,10.46514,20.16029-30.24a4.89206,4.89206,0,0,1,8.14088,5.42726l-23.99584,35.99375a4.894,4.894,0,0,1-3.93468,2.177C587.34613,269.14624,587.30074,269.147,587.25535,269.147Z" transform="translate(-328.39033 -133.1994)" fill="#fff"/></svg>
<svg xmlns="http://www.w3.org/2000/svg" data-name="Layer 1" width="400" height="400" viewBox="0 0 793 551.73152" xmlns:xlink="http://www.w3.org/1999/xlink"><ellipse cx="158" cy="539.73152" rx="158" ry="12" fill="#e6e6e6"/><path d="M324.27227,296.55377c27.49676-11.6953,61.74442-4.28528,95.19092.85757.31124-6.228,4.08385-13.80782.132-18.15284-4.80115-5.2788-4.35917-10.82529-1.47008-16.40375,7.38788-14.265-3.1969-29.44375-13.88428-42.0647a23.66937,23.66937,0,0,0-19.75537-8.29179l-19.7975,1.41411A23.70939,23.70939,0,0,0,343.635,230.85851v0c-4.72724,6.42917-7.25736,12.84055-5.66438,19.21854-7.08065,4.83882-8.27029,10.67977-5.08851,17.2644,2.698,4.14592,2.66928,8.18161-.12275,12.1056a55.89079,55.89079,0,0,0-8.31011,16.5061Z" transform="translate(-203.5 -174.13424)" fill="#2f2e41"/><path d="M977.70889,651.09727H417.29111A18.79111,18.79111,0,0,1,398.5,632.30616h0q304.727-35.41512,598,0h0A18.79111,18.79111,0,0,1,977.70889,651.09727Z" transform="translate(-203.5 -174.13424)" fill="#2f2e41"/><path d="M996.5,633.41151l-598-1.10536,69.30611-116.61553.3316-.55268V258.13057a23.7522,23.7522,0,0,1,23.75418-23.75418H899.792a23.7522,23.7522,0,0,1,23.75418,23.75418V516.90649Z" transform="translate(-203.5 -174.13424)" fill="#3f3d56"/><path d="M491.35028,250.95679a7.74623,7.74623,0,0,0-7.73753,7.73753V493.03073a7.74657,7.74657,0,0,0,7.73753,7.73752H903.64972a7.74691,7.74691,0,0,0,7.73753-7.73752V258.69432a7.74657,7.74657,0,0,0-7.73753-7.73753Z" transform="translate(-203.5 -174.13424)" fill="#fff"/><path d="M493.07794,531.71835a3.32522,3.32522,0,0,0-3.01275,1.93006l-21.35537,46.42514a3.31594,3.31594,0,0,0,3.01221,4.7021H920.81411a3.3157,3.3157,0,0,0,2.96526-4.79925L900.5668,533.55126a3.29926,3.29926,0,0,0-2.96526-1.83291Z" transform="translate(-203.5 -174.13424)" fill="#2f2e41"/><circle cx="492.34196" cy="67.97967" r="4.97412" fill="#fff"/><path d="M651.69986,593.61853a3.32114,3.32114,0,0,0-3.20165,2.4536l-5.35679,19.89649a3.31576,3.31576,0,0,0,3.20166,4.17856h101.874a3.31531,3.31531,0,0,0,3.13257-4.40093l-6.88691-19.89649a3.31784,3.31784,0,0,0-3.13366-2.23123Z" transform="translate(-203.5 -174.13424)" fill="#2f2e41"/><polygon points="720.046 337.135 720.046 341.556 264.306 341.556 264.649 341.004 264.649 337.135 720.046 337.135" fill="#2f2e41"/><circle cx="707.33457" cy="77.37523" r="77.37523" fill="#6c63ff"/><path d="M942.89,285.223H878.77911a4.42582,4.42582,0,0,1-4.42144-4.42145V242.11391a4.42616,4.42616,0,0,1,4.42144-4.42144H942.89a4.42616,4.42616,0,0,1,4.42144,4.42144v38.68761A4.42582,4.42582,0,0,1,942.89,285.223Zm-64.11091-43.10906v38.68761h64.11415L942.89,242.11391Z" transform="translate(-203.5 -174.13424)" fill="#fff"/><path d="M930.73105,242.11391h-39.793V224.42814c0-12.80987,8.36792-22.10721,19.89649-22.10721s19.89648,9.29734,19.89648,22.10721Zm-35.37153-4.42144h30.95009V224.42814c0-10.413-6.36338-17.68576-15.475-17.68576s-15.47505,7.27281-15.47505,17.68576Z" transform="translate(-203.5 -174.13424)" fill="#fff"/><circle cx="707.33457" cy="86.21811" r="4.42144" fill="#fff"/><path d="M856.81994,421.28372H538.18006a5.90767,5.90767,0,0,1-5.90073-5.90073V336.342a5.90767,5.90767,0,0,1,5.90073-5.90072H856.81994a5.90767,5.90767,0,0,1,5.90073,5.90072V415.383A5.90767,5.90767,0,0,1,856.81994,421.28372Zm-318.63988-88.4821a3.5443,3.5443,0,0,0-3.54043,3.54043V415.383a3.54431,3.54431,0,0,0,3.54043,3.54044H856.81994a3.54431,3.54431,0,0,0,3.54043-3.54044V336.342a3.5443,3.5443,0,0,0-3.54043-3.54043Z" transform="translate(-203.5 -174.13424)" fill="#e6e6e6"/><circle cx="384.19021" cy="198.69546" r="24.03645" fill="#e6e6e6"/><path d="M643.203,356.80541a4.00608,4.00608,0,1,0,0,8.01215H832.06074a4.00607,4.00607,0,0,0,0-8.01215Z" transform="translate(-203.5 -174.13424)" fill="#e6e6e6"/><path d="M643.203,380.84186a4.00607,4.00607,0,1,0,0,8.01214H724.469a4.00607,4.00607,0,1,0,0-8.01214Z" transform="translate(-203.5 -174.13424)" fill="#e6e6e6"/><path d="M467.022,382.46241,408.1189,413.778l-.74561-26.09629c19.22553-3.20948,37.51669-8.7974,54.42941-17.8946l6.1605-15.22008a10.31753,10.31753,0,0,1,17.53643-2.67788l0,0a10.31753,10.31753,0,0,1-.90847,14.06885Z" transform="translate(-203.5 -174.13424)" fill="#ffb8b8"/><path d="M323.09819,563.26707v0a11.57378,11.57378,0,0,1,1.46928-9.36311l12.93931-19.85777a22.61221,22.61221,0,0,1,29.335-7.73927h0c-5.438,9.25647-4.67994,17.37679,1.87806,24.43365a117.63085,117.63085,0,0,0-27.93606,19.04492A11.57386,11.57386,0,0,1,323.09819,563.26707Z" transform="translate(-203.5 -174.13424)" fill="#2f2e41"/><path d="M469.70475,537.30274l0,0a22.20314,22.20314,0,0,1-18.87085,10.77909l-85.96027.65122-3.728-21.62264,38.026-11.18413-32.06116-24.60507L402.154,450.31277l63.65,59.32431A22.20317,22.20317,0,0,1,469.70475,537.30274Z" transform="translate(-203.5 -174.13424)" fill="#2f2e41"/><path d="M351.45266,685.17939H331.32124c-18.07509-123.89772-36.47383-248.14186,17.8946-294.51529l64.12231,10.43852L405.13646,455.532l-35.7892,41.00845Z" transform="translate(-203.5 -174.13424)" fill="#2f2e41"/><path d="M369.14917,713.24594h0a11.57381,11.57381,0,0,1-9.3632-1.46873l-21.85854-2.93814a22.61221,22.61221,0,0,1-7.741-29.33451v0c9.2568,5.43749,17.37707,4.67891,24.43354-1.8795,4.98593,10.06738,13.20093,9.45331,21.04657,17.93494A11.57385,11.57385,0,0,1,369.14917,713.24594Z" transform="translate(-203.5 -174.13424)" fill="#2f2e41"/><path d="M399.1716,307.90158l-37.28042-8.94731c6.19168-12.6739,6.70155-26.77618,3.728-41.75406l25.35068-.74561C391.76421,275.08,394.16732,292.48081,399.1716,307.90158Z" transform="translate(-203.5 -174.13424)" fill="#ffb8b8"/><path d="M409.41752,423.55243c-27.13873,18.49308-46.31418.63272-60.94729-26.92346,2.03338-16.86188-1.259-37.04061-7.35672-58.96635a40.13762,40.13762,0,0,1,24.50567-48.40124h0l32.06116,13.421c27.22362,22.19038,32.582,46.227,22.36825,71.5784Z" transform="translate(-203.5 -174.13424)" fill="#6c63ff"/><path d="M331.32124,326.54178,301.4969,342.19956l52.9382,31.31555,7.366,18.16951a9.63673,9.63673,0,0,1-5.78925,12.73088h0a9.63673,9.63673,0,0,1-12.76159-8.54442l-.74489-12.66307-67.2838-22.20366a15.73306,15.73306,0,0,1-9.87265-9.61147v0a15.733,15.733,0,0,1,5.90262-18.30258l54.10485-37.11845Z" transform="translate(-203.5 -174.13424)" fill="#ffb8b8"/><path d="M361.14557,329.52422c-12.43861-5.4511-23.74934.47044-38.026,5.21926l-2.23683-39.51725c14.17612-7.55568,27.69209-9.59281,40.26285-3.728Z" transform="translate(-203.5 -174.13424)" fill="#6c63ff"/><circle cx="172.52496" cy="78.09251" r="23.80211" fill="#ffb8b8"/><path d="M404.5,249.22353c-23.56616,2.30811-41.52338-1.54606-53-12.52007v-8.8377h51Z" transform="translate(-203.5 -174.13424)" fill="#2f2e41"/></svg>

